<?xml version="1.0" encoding="UTF-8"?>
<svg id="Layer_1" data-name="Layer 1" xmlns="http://www.w3.org/2000/svg" xmlns:xlink="http://www.w3.org/1999/xlink" version="1.1" viewBox="0 0 36 36">
  <defs>
    <style>
      .cls-1 {
        fill: #8c3293;
      }

      .cls-1, .cls-2, .cls-3 {
        stroke-width: 0px;
      }

      .cls-2 {
        fill: #ee4599;
      }

      .cls-4 {
        fill: #789fd3;
        filter: url(#outer-glow-1);
        stroke: #231f20;
      }

      .cls-4, .cls-5 {
        stroke-miterlimit: 10;
      }

      .cls-5 {
        fill: none;
        stroke: #8c3293;
      }

      .cls-3 {
        fill: #1b1751;
      }

      .cls-6 {
        fill: #fff;
        font-family: ArialMT, Arial;
        font-size: 18.8px;
      }
    </style>
    <filter id="outer-glow-1" filterUnits="userSpaceOnUse">
      <feOffset dx="0" dy="0"/>
      <feGaussianBlur result="blur" stdDeviation="5"/>
      <feFlood flood-color="#fff" flood-opacity=".75"/>
      <feComposite in2="blur" operator="in"/>
      <feComposite in="SourceGraphic"/>
    </filter>
  </defs>
  <circle class="cls-4" cx="18" cy="18" r="15.29"/>
  <circle class="cls-2" cx="15.25" cy="5.72" r=".4"/>
  <circle class="cls-2" cx="18.75" cy="5.62" r=".5"/>
  <circle class="cls-2" cx="23.86" cy="6.7" r=".59"/>
  <circle class="cls-2" cx="23.03" cy="9.1" r=".51"/>
  <circle class="cls-2" cx="24.45" cy="11.68" r=".51"/>
  <circle class="cls-2" cx="27.3" cy="13.89" r=".51"/>
  <circle class="cls-2" cx="29.32" cy="14.9" r=".51"/>
  <circle class="cls-2" cx="29.54" cy="19.31" r=".51"/>
  <circle class="cls-2" cx="31.09" cy="20.33" r=".51"/>
  <circle class="cls-2" cx="27.69" cy="9.99" r=".39"/>
  <circle class="cls-2" cx="29.32" cy="11.44" r=".48"/>
  <circle class="cls-2" cx="25.61" cy="9.53" r=".43"/>
  <circle class="cls-2" cx="12.7" cy="7.64" r=".4"/>
  <circle class="cls-2" cx="16.2" cy="7.54" r=".5"/>
  <circle class="cls-2" cx="21.3" cy="8.62" r=".59"/>
  <circle class="cls-2" cx="20.47" cy="11.02" r=".51"/>
  <circle class="cls-2" cx="21.89" cy="13.6" r=".51"/>
  <circle class="cls-2" cx="24.74" cy="15.81" r=".51"/>
  <circle class="cls-2" cx="26.77" cy="16.82" r=".51"/>
  <circle class="cls-2" cx="26.99" cy="21.24" r=".51"/>
  <circle class="cls-2" cx="28.53" cy="22.25" r=".51"/>
  <circle class="cls-2" cx="25.13" cy="11.91" r=".39"/>
  <circle class="cls-2" cx="26.77" cy="13.36" r=".48"/>
  <circle class="cls-2" cx="23.05" cy="11.45" r=".43"/>
  <circle class="cls-2" cx="12" cy="9.81" r=".4"/>
  <circle class="cls-2" cx="15.5" cy="9.71" r=".5"/>
  <circle class="cls-2" cx="20.6" cy="10.79" r=".59"/>
  <circle class="cls-2" cx="19.77" cy="13.19" r=".51"/>
  <circle class="cls-2" cx="21.19" cy="15.77" r=".51"/>
  <circle class="cls-2" cx="24.04" cy="17.98" r=".51"/>
  <circle class="cls-2" cx="26.07" cy="18.99" r=".51"/>
  <circle class="cls-2" cx="26.29" cy="23.4" r=".51"/>
  <circle class="cls-2" cx="27.83" cy="24.42" r=".51"/>
  <circle class="cls-2" cx="24.43" cy="14.08" r=".39"/>
  <circle class="cls-2" cx="26.07" cy="15.53" r=".48"/>
  <circle class="cls-2" cx="22.35" cy="13.62" r=".43"/>
  <circle class="cls-2" cx="7.29" cy="10.21" r=".4"/>
  <circle class="cls-2" cx="10.79" cy="10.11" r=".5"/>
  <circle class="cls-2" cx="15.89" cy="11.2" r=".59"/>
  <circle class="cls-2" cx="15.06" cy="13.59" r=".51"/>
  <circle class="cls-2" cx="16.48" cy="16.17" r=".51"/>
  <circle class="cls-2" cx="19.33" cy="18.38" r=".51"/>
  <circle class="cls-2" cx="21.36" cy="19.39" r=".51"/>
  <circle class="cls-2" cx="21.57" cy="23.81" r=".51"/>
  <circle class="cls-2" cx="23.12" cy="24.82" r=".51"/>
  <circle class="cls-2" cx="19.72" cy="14.49" r=".39"/>
  <circle class="cls-2" cx="21.36" cy="15.93" r=".48"/>
  <circle class="cls-2" cx="17.64" cy="14.02" r=".43"/>
  <circle class="cls-2" cx="3.63" cy="17.15" r=".4"/>
  <circle class="cls-2" cx="7.13" cy="17.06" r=".5"/>
  <circle class="cls-2" cx="12.23" cy="18.14" r=".59"/>
  <circle class="cls-2" cx="11.4" cy="20.54" r=".51"/>
  <circle class="cls-2" cx="12.82" cy="23.12" r=".51"/>
  <circle class="cls-2" cx="15.68" cy="25.33" r=".51"/>
  <circle class="cls-2" cx="17.7" cy="26.34" r=".51"/>
  <circle class="cls-2" cx="17.92" cy="30.75" r=".51"/>
  <circle class="cls-2" cx="19.46" cy="31.77" r=".51"/>
  <circle class="cls-2" cx="16.06" cy="21.43" r=".39"/>
  <circle class="cls-2" cx="17.7" cy="22.88" r=".48"/>
  <circle class="cls-2" cx="13.98" cy="20.97" r=".43"/>
  <circle class="cls-1" cx="12.7" cy="13.07" r="5.26"/>
  <circle class="cls-1" cx="21.57" cy="26.09" r="5.26"/>
  <path class="cls-5" d="M11.57,11.54l8.26,1.55c.55.1,1.11.21,1.58.51.39.25.69.6.97.97.45.59.87,1.22,1.1,1.92s.29,1.49.01,2.18c-.24.6-.69,1.08-1.06,1.6-1.16,1.61-1.57,3.62-1.95,5.57"/>
  <circle class="cls-3" cx="5.34" cy="15.05" r="1.71"/>
  <circle class="cls-3" cx="5.74" cy="20.83" r="1.71"/>
  <circle class="cls-3" cx="11.57" cy="20.73" r="1.71"/>
  <circle class="cls-3" cx="9.86" cy="25.11" r="1.71"/>
  <circle class="cls-3" cx="13.27" cy="29.48" r="1.71"/>
  <circle class="cls-3" cx="14.98" cy="25.1" r="1.71"/>
  <circle class="cls-3" cx="15.17" cy="20.03" r="1.71"/>
  <circle class="cls-3" cx="19.72" cy="19.13" r="1.71"/>
  <circle class="cls-3" cx="19.84" cy="15.3" r="1.71"/>
  <circle class="cls-3" cx="18.95" cy="9.99" r="1.71"/>
  <circle class="cls-3" cx="16.2" cy="5.62" r="1.71"/>
  <circle class="cls-3" cx="20.47" cy="6.11" r="1.71"/>
  <circle class="cls-3" cx="25.61" cy="8.29" r="1.71"/>
  <circle class="cls-3" cx="24.81" cy="11.02" r="1.71"/>
  <circle class="cls-3" cx="14.55" cy="11.68" r="1.71"/>
  <circle class="cls-3" cx="11.28" cy="8.03" r="1.71"/>
  <circle class="cls-3" cx="8.59" cy="12.3" r="1.71"/>
  <circle class="cls-3" cx="12" cy="16.17" r="1.71"/>
  <circle class="cls-3" cx="28.33" cy="15.05" r="1.71"/>
  <circle class="cls-3" cx="28.33" cy="10.96" r="1.71"/>
  <path class="cls-3" d="M24.55,15.86l1.7.17c-.09.87-.83,1.54-1.7,1.54-.94,0-1.71-.77-1.71-1.71s.77-1.71,1.71-1.71,1.71.77,1.71,1.71h-1.71Z"/>
  <circle class="cls-3" cx="25.13" cy="20.54" r="1.71"/>
  <circle class="cls-3" cx="29.54" cy="19.82" r="1.71"/>
  <circle class="cls-3" cx="29.32" cy="25.33" r="1.71"/>
  <circle class="cls-3" cx="24.04" cy="26.09" r="1.71"/>
  <circle class="cls-3" cx="20.87" cy="21.82" r="1.71"/>
  <circle class="cls-3" cx="8.27" cy="10.56" r="1.71"/>
  <circle class="cls-3" cx="5.41" cy="15.61" r="1.71"/>
  <circle class="cls-3" cx="10.33" cy="18.73" r="1.71"/>
  <circle class="cls-3" cx="6.5" cy="21.45" r="1.71"/>
  <circle class="cls-3" cx="6.63" cy="24.1" r="1.71"/>
  <circle class="cls-3" cx="10.77" cy="24.26" r="1.71"/>
  <circle class="cls-3" cx="13.72" cy="20.14" r="1.71"/>
  <circle class="cls-3" cx="18.02" cy="21.89" r="1.71"/>
  <circle class="cls-3" cx="20.23" cy="18.76" r="1.71"/>
  <circle class="cls-3" cx="22.41" cy="13.84" r="1.71"/>
  <circle class="cls-3" cx="22.53" cy="8.68" r="1.71"/>
  <circle class="cls-3" cx="23.44" cy="6.26" r="1.71"/>
  <circle class="cls-3" cx="31.03" cy="16.68" r="1.71"/>
  <circle class="cls-3" cx="25.07" cy="13.36" r="1.71"/>
  <circle class="cls-3" cx="17.81" cy="12.83" r="1.71"/>
  <circle class="cls-3" cx="17.09" cy="7.98" r="1.71"/>
  <circle class="cls-3" cx="12.5" cy="10.06" r="1.71"/>
  <circle class="cls-3" cx="13.2" cy="15.17" r="1.71"/>
  <circle class="cls-3" cx="27.46" cy="23.23" r="1.71"/>
  <circle class="cls-3" cx="29.71" cy="19.82" r="1.71"/>
  <path class="cls-3" d="M23.85,21.82l1.32,1.08c-.55.68-1.54.83-2.26.35-.78-.52-1-1.58-.48-2.36s1.58-1,2.36-.48,1,1.58.48,2.36l-1.42-.94Z"/>
  <circle class="cls-3" cx="21.76" cy="26.05" r="1.71"/>
  <circle class="cls-3" cx="25.83" cy="27.88" r="1.71"/>
  <circle class="cls-3" cx="22.4" cy="30.37" r="1.71"/>
  <circle class="cls-3" cx="17.79" cy="30.08" r="1.71"/>
  <circle class="cls-3" cx="17.5" cy="24.77" r="1.71"/>
  <circle class="cls-3" cx="24.85" cy="29.01" r="1.71"/>
  <circle class="cls-3" cx="30.58" cy="22.4" r="1.71"/>
  <circle class="cls-3" cx="23.85" cy="18.11" r="1.71"/>
  <circle class="cls-3" cx="28.13" cy="18.48" r="1.71"/>
  <circle class="cls-3" cx="28.47" cy="12.94" r="1.71"/>
  <circle class="cls-3" cx="22.41" cy="11.35" r="1.71"/>
  <circle class="cls-3" cx="20.79" cy="18.76" r="1.71"/>
  <circle class="cls-3" cx="16.79" cy="16.43" r="1.71"/>
  <circle class="cls-3" cx="14.16" cy="19.21" r="1.71"/>
  <circle class="cls-3" cx="11.3" cy="23.77" r="1.71"/>
  <circle class="cls-3" cx="10.47" cy="28.88" r="1.71"/>
  <circle class="cls-3" cx="7.59" cy="25.67" r="1.71"/>
  <circle class="cls-3" cx="5.19" cy="20.64" r="1.71"/>
  <circle class="cls-3" cx="9.16" cy="20.02" r="1.71"/>
  <circle class="cls-3" cx="15.72" cy="25.43" r="1.71"/>
  <circle class="cls-3" cx="15.75" cy="30.33" r="1.71"/>
  <circle class="cls-3" cx="20.59" cy="28.91" r="1.71"/>
  <circle class="cls-3" cx="20.61" cy="23.76" r="1.71"/>
  <circle class="cls-3" cx="7.63" cy="13.77" r="1.71"/>
  <circle class="cls-3" cx="4.92" cy="16.83" r="1.71"/>
  <path class="cls-3" d="M11,15.68l-1.16-1.25c.64-.59,1.64-.61,2.29-.03.7.62.77,1.71.15,2.41s-1.71.77-2.41.15-.77-1.71-.15-2.41l1.28,1.13Z"/>
  <circle class="cls-3" cx="13.67" cy="11.78" r="1.71"/>
  <circle class="cls-3" cx="9.89" cy="9.4" r="1.71"/>
  <circle class="cls-3" cx="18.16" cy="8.34" r="1.71"/>
  <circle class="cls-3" cx="17.7" cy="13.65" r="1.71"/>
  <text class="cls-6" transform="translate(7.26 23.97)"><tspan x="0" y="0">Ba</tspan></text>
</svg>