<?xml version="1.0" encoding="UTF-8"?>
<svg id="Layer_1" data-name="Layer 1" xmlns="http://www.w3.org/2000/svg" version="1.1" viewBox="0 0 36 36">
  <defs>
    <style>
      .cls-1 {
        fill: #8e50a0;
      }

      .cls-1, .cls-2, .cls-3 {
        stroke-width: 0px;
      }

      .cls-4 {
        fill: #c2def4;
        stroke: #231f20;
        stroke-miterlimit: 10;
      }

      .cls-2 {
        fill: #1f093e;
      }

      .cls-3 {
        fill: #1d1752;
      }

      .cls-5 {
        fill: #fff;
        font-family: ArialMT, Arial;
        font-size: 18.7px;
      }

      .cls-5, .cls-6 {
        isolation: isolate;
      }
    </style>
  </defs>
  <circle class="cls-4" cx="18" cy="18" r="15.3"/>
  <circle class="cls-1" cx="18" cy="18" r="8.4"/>
  <g>
    <circle class="cls-2" cx="18.9" cy="5.7" r="2.3"/>
    <circle class="cls-2" cx="16.6" cy="5.7" r="2.3"/>
    <circle class="cls-3" cx="13.6" cy="6.7" r="2.3"/>
    <circle class="cls-2" cx="10.4" cy="8.5" r="2.3"/>
    <circle class="cls-2" cx="11.3" cy="6.7" r="2.3"/>
    <circle class="cls-2" cx="12.7" cy="11.9" r="2.3"/>
    <circle class="cls-2" cx="15.7" cy="9" r="2.3"/>
    <circle class="cls-2" cx="20" cy="9" r="2.3"/>
    <circle class="cls-2" cx="23.7" cy="11.4" r="2.3"/>
    <circle class="cls-2" cx="21.4" cy="11.4" r="2.3"/>
    <circle class="cls-3" cx="18.4" cy="12.3" r="2.3"/>
    <circle class="cls-2" cx="15.2" cy="14.1" r="2.3"/>
    <circle class="cls-2" cx="16.1" cy="12.3" r="2.3"/>
    <circle class="cls-2" cx="17.5" cy="17.6" r="2.3"/>
    <circle class="cls-2" cx="20.5" cy="14.6" r="2.3"/>
    <circle class="cls-2" cx="24.8" cy="14.6" r="2.3"/>
  </g>
  <g>
    <circle class="cls-2" cx="21.7" cy="5.4" r="2.3"/>
    <circle class="cls-2" cx="19.4" cy="6" r="2.3"/>
    <circle class="cls-3" cx="16.8" cy="7.6" r="2.3"/>
    <circle class="cls-2" cx="14.1" cy="10.2" r="2.3"/>
    <circle class="cls-2" cx="14.5" cy="8.2" r="2.3"/>
    <circle class="cls-2" cx="17.2" cy="13" r="2.3"/>
    <circle class="cls-2" cx="19.4" cy="9.4" r="2.3"/>
    <circle class="cls-2" cx="23.5" cy="8.3" r="2.3"/>
    <circle class="cls-2" cx="27.7" cy="9.8" r="2.3"/>
    <circle class="cls-2" cx="25.4" cy="10.3" r="2.3"/>
    <circle class="cls-3" cx="22.8" cy="12" r="2.3"/>
    <circle class="cls-2" cx="20.1" cy="14.5" r="2.3"/>
    <circle class="cls-2" cx="20.6" cy="12.5" r="2.3"/>
    <circle class="cls-2" cx="23.2" cy="17.3" r="2.3"/>
    <circle class="cls-2" cx="25.4" cy="13.7" r="2.3"/>
    <circle class="cls-2" cx="29.6" cy="12.7" r="2.3"/>
  </g>
  <g>
    <circle class="cls-2" cx="19.8" cy="15.3" r="2.3"/>
    <circle class="cls-2" cx="17.6" cy="15.8" r="2.3"/>
    <circle class="cls-3" cx="14.9" cy="17.5" r="2.3"/>
    <circle class="cls-2" cx="12.2" cy="20.1" r="2.3"/>
    <circle class="cls-2" cx="12.7" cy="18.1" r="2.3"/>
    <circle class="cls-2" cx="15.3" cy="22.8" r="2.3"/>
    <circle class="cls-2" cx="17.5" cy="19.2" r="2.3"/>
    <circle class="cls-2" cx="21.7" cy="18.2" r="2.3"/>
    <circle class="cls-2" cx="25.8" cy="19.6" r="2.3"/>
    <circle class="cls-2" cx="23.6" cy="20.2" r="2.3"/>
    <circle class="cls-3" cx="21" cy="21.8" r="2.3"/>
    <circle class="cls-2" cx="18.3" cy="24.4" r="2.3"/>
    <circle class="cls-2" cx="18.7" cy="22.4" r="2.3"/>
    <circle class="cls-2" cx="21.4" cy="27.1" r="2.3"/>
    <circle class="cls-2" cx="23.5" cy="23.6" r="2.3"/>
    <circle class="cls-2" cx="27.7" cy="22.5" r="2.3"/>
  </g>
  <g>
    <circle class="cls-2" cx="14.5" cy="8.5" r="2.3"/>
    <circle class="cls-2" cx="12.3" cy="9" r="2.3"/>
    <circle class="cls-3" cx="9.7" cy="10.7" r="2.3"/>
    <circle class="cls-2" cx="7" cy="13.2" r="2.3"/>
    <circle class="cls-2" cx="7.4" cy="11.3" r="2.3"/>
    <circle class="cls-2" cx="10.1" cy="16" r="2.3"/>
    <circle class="cls-2" cx="12.2" cy="12.4" r="2.3"/>
    <circle class="cls-2" cx="16.4" cy="11.4" r="2.3"/>
    <circle class="cls-2" cx="20.6" cy="12.8" r="2.3"/>
    <circle class="cls-2" cx="18.3" cy="13.4" r="2.3"/>
    <circle class="cls-3" cx="15.7" cy="15" r="2.3"/>
    <circle class="cls-2" cx="13" cy="17.6" r="2.3"/>
    <circle class="cls-2" cx="13.5" cy="15.6" r="2.3"/>
    <circle class="cls-2" cx="16.1" cy="20.3" r="2.3"/>
    <circle class="cls-2" cx="18.3" cy="16.8" r="2.3"/>
    <circle class="cls-2" cx="22.4" cy="15.7" r="2.3"/>
  </g>
  <g>
    <circle class="cls-2" cx="9.7" cy="25" r="2.3"/>
    <circle class="cls-2" cx="12" cy="25.2" r="2.3"/>
    <circle class="cls-3" cx="15.1" cy="24.5" r="2.3"/>
    <circle class="cls-2" cx="18.5" cy="23" r="2.3"/>
    <circle class="cls-2" cx="17.4" cy="24.8" r="2.3"/>
    <circle class="cls-2" cx="16.5" cy="19.4" r="2.3"/>
    <circle class="cls-2" cx="13.2" cy="22" r="2.3"/>
    <circle class="cls-2" cx="9" cy="21.6" r="2.3"/>
    <circle class="cls-2" cx="5.5" cy="18.9" r="2.3"/>
    <circle class="cls-2" cx="7.8" cy="19.1" r="2.3"/>
    <circle class="cls-3" cx="10.8" cy="18.4" r="2.3"/>
    <circle class="cls-2" cx="14.2" cy="16.9" r="2.3"/>
    <circle class="cls-2" cx="13.1" cy="18.7" r="2.3"/>
    <circle class="cls-2" cx="12.2" cy="13.3" r="2.3"/>
    <circle class="cls-2" cx="9" cy="15.9" r="2.3"/>
    <circle class="cls-2" cx="4.7" cy="15.5" r="2.3"/>
  </g>
  <g>
    <circle class="cls-2" cx="6.9" cy="16.9" r="2.3"/>
    <circle class="cls-2" cx="6.4" cy="19.2" r="2.3"/>
    <circle class="cls-3" cx="6.7" cy="22.2" r="2.3"/>
    <circle class="cls-2" cx="7.7" cy="25.8" r="2.3"/>
    <circle class="cls-2" cx="6.1" cy="24.5" r="2.3"/>
    <circle class="cls-2" cx="11.6" cy="24.3" r="2.3"/>
    <circle class="cls-2" cx="9.4" cy="20.8" r="2.3"/>
    <circle class="cls-2" cx="10.3" cy="16.6" r="2.3"/>
    <circle class="cls-2" cx="13.5" cy="13.5" r="2.3"/>
    <circle class="cls-2" cx="13" cy="15.7" r="2.3"/>
    <circle class="cls-3" cx="13.3" cy="18.8" r="2.3"/>
    <circle class="cls-2" cx="14.3" cy="22.4" r="2.3"/>
    <circle class="cls-2" cx="12.7" cy="21.1" r="2.3"/>
    <circle class="cls-2" cx="18.2" cy="20.9" r="2.3"/>
    <circle class="cls-2" cx="16" cy="17.3" r="2.3"/>
    <circle class="cls-2" cx="16.9" cy="13.2" r="2.3"/>
  </g>
  <g>
    <circle class="cls-2" cx="18.9" cy="21.8" r="2.3"/>
    <circle class="cls-2" cx="18.4" cy="24.1" r="2.3"/>
    <circle class="cls-3" cx="18.7" cy="27.1" r="2.3"/>
    <circle class="cls-2" cx="19.7" cy="30.7" r="2.3"/>
    <circle class="cls-2" cx="18.1" cy="29.4" r="2.3"/>
    <circle class="cls-2" cx="23.6" cy="29.2" r="2.3"/>
    <circle class="cls-2" cx="21.4" cy="25.7" r="2.3"/>
    <circle class="cls-2" cx="22.3" cy="21.5" r="2.3"/>
    <circle class="cls-2" cx="25.5" cy="18.4" r="2.3"/>
    <circle class="cls-2" cx="25" cy="20.6" r="2.3"/>
    <circle class="cls-3" cx="25.2" cy="23.7" r="2.3"/>
    <circle class="cls-2" cx="26.3" cy="27.3" r="2.3"/>
    <circle class="cls-2" cx="24.7" cy="26" r="2.3"/>
    <circle class="cls-2" cx="30.2" cy="25.8" r="2.3"/>
    <circle class="cls-2" cx="28" cy="22.2" r="2.3"/>
    <circle class="cls-2" cx="28.9" cy="18.1" r="2.3"/>
  </g>
  <g>
    <circle class="cls-2" cx="31.9" cy="17.5" r="2.3"/>
    <circle class="cls-2" cx="30.8" cy="15.4" r="2.3"/>
    <circle class="cls-3" cx="28.6" cy="13.3" r="2.3"/>
    <circle class="cls-2" cx="25.5" cy="11.2" r="2.3"/>
    <circle class="cls-2" cx="27.5" cy="11.2" r="2.3"/>
    <circle class="cls-2" cx="23.5" cy="14.9" r="2.3"/>
    <circle class="cls-2" cx="27.5" cy="16.2" r="2.3"/>
    <circle class="cls-2" cx="29.5" cy="20" r="2.3"/>
    <circle class="cls-2" cx="29.1" cy="24.4" r="2.3"/>
    <circle class="cls-2" cx="28" cy="22.3" r="2.3"/>
    <circle class="cls-3" cx="25.8" cy="20.1" r="2.3"/>
    <circle class="cls-2" cx="22.7" cy="18.1" r="2.3"/>
    <circle class="cls-2" cx="24.7" cy="18.1" r="2.3"/>
    <circle class="cls-2" cx="20.7" cy="21.8" r="2.3"/>
    <circle class="cls-2" cx="24.7" cy="23" r="2.3"/>
    <circle class="cls-2" cx="26.6" cy="26.8" r="2.3"/>
  </g>
  <g>
    <circle class="cls-2" cx="29.3" cy="13.4" r="2.3"/>
    <circle class="cls-2" cx="28.3" cy="11.4" r="2.3"/>
    <circle class="cls-3" cx="26.1" cy="9.2" r="2.3"/>
    <circle class="cls-2" cx="22.9" cy="7.2" r="2.3"/>
    <circle class="cls-2" cx="25" cy="7.2" r="2.3"/>
    <circle class="cls-2" cx="21" cy="10.8" r="2.3"/>
    <circle class="cls-2" cx="24.9" cy="12.1" r="2.3"/>
    <circle class="cls-2" cx="26.9" cy="15.9" r="2.3"/>
    <circle class="cls-2" cx="26.5" cy="20.3" r="2.3"/>
    <circle class="cls-2" cx="25.5" cy="18.2" r="2.3"/>
    <circle class="cls-3" cx="23.3" cy="16.1" r="2.3"/>
    <circle class="cls-2" cx="20.1" cy="14" r="2.3"/>
    <circle class="cls-2" cx="22.2" cy="14" r="2.3"/>
    <circle class="cls-2" cx="18.2" cy="17.7" r="2.3"/>
    <circle class="cls-2" cx="22.1" cy="19" r="2.3"/>
    <circle class="cls-2" cx="24.1" cy="22.8" r="2.3"/>
  </g>
  <g>
    <circle class="cls-2" cx="9.5" cy="27.8" r="2.3"/>
    <circle class="cls-2" cx="11.5" cy="29" r="2.3"/>
    <circle class="cls-3" cx="14.5" cy="29.7" r="2.3"/>
    <circle class="cls-2" cx="18.2" cy="29.8" r="2.3"/>
    <circle class="cls-2" cx="16.5" cy="30.9" r="2.3"/>
    <circle class="cls-2" cx="18.1" cy="25.7" r="2.3"/>
    <circle class="cls-2" cx="14" cy="26.6" r="2.3"/>
    <circle class="cls-2" cx="10.3" cy="24.4" r="2.3"/>
    <circle class="cls-2" cx="8.4" cy="20.4" r="2.3"/>
    <circle class="cls-2" cx="10.4" cy="21.6" r="2.3"/>
    <circle class="cls-3" cx="13.4" cy="22.3" r="2.3"/>
    <circle class="cls-2" cx="17.1" cy="22.5" r="2.3"/>
    <circle class="cls-2" cx="15.4" cy="23.6" r="2.3"/>
    <circle class="cls-2" cx="16.9" cy="18.3" r="2.3"/>
    <circle class="cls-2" cx="12.9" cy="19.3" r="2.3"/>
    <circle class="cls-2" cx="9.2" cy="17.1" r="2.3"/>
  </g>
  <g class="cls-6">
    <text class="cls-5" transform="translate(5.1 24.1)"><tspan x="0" y="0">Ma</tspan></text>
  </g>
</svg>