<?xml version="1.0" encoding="UTF-8"?>
<svg id="Layer_1" data-name="Layer 1" xmlns="http://www.w3.org/2000/svg" version="1.1" viewBox="0 0 36 36">
  <defs>
    <style>
      .cls-1 {
        fill: #b2a8d3;
        stroke-width: 0px;
      }

      .cls-2 {
        fill: #e2aed0;
        stroke: #ae55a1;
        stroke-miterlimit: 10;
      }

      .cls-3 {
        fill: #fff;
        font-family: ArialMT, Arial;
        font-size: 18.7px;
      }

      .cls-3, .cls-4 {
        isolation: isolate;
      }
    </style>
  </defs>
  <circle class="cls-2" cx="18" cy="18" r="15.3"/>
  <circle class="cls-1" cx="14.7" cy="30.5" r="1.8"/>
  <circle class="cls-1" cx="29.9" cy="23.4" r="1.8"/>
  <circle class="cls-1" cx="21.5" cy="21.7" r="1.8"/>
  <circle class="cls-1" cx="23.3" cy="15.2" r="1.8"/>
  <circle class="cls-1" cx="30.6" cy="15.2" r="1.8"/>
  <circle class="cls-1" cx="11.6" cy="16.9" r="1.8"/>
  <circle class="cls-1" cx="11.6" cy="27" r="1.8"/>
  <circle class="cls-1" cx="21.5" cy="26.4" r="1.8"/>
  <circle class="cls-1" cx="15.2" cy="19.9" r="1.8"/>
  <circle class="cls-1" cx="17" cy="7.5" r="1.8"/>
  <circle class="cls-1" cx="11.7" cy="8.4" r="1.8"/>
  <circle class="cls-1" cx="4.5" cy="18.1" r="1.8"/>
  <circle class="cls-1" cx="10.7" cy="27" r="1.8"/>
  <circle class="cls-1" cx="6.3" cy="23.4" r="1.8"/>
  <circle class="cls-1" cx="9.9" cy="11.6" r="1.8"/>
  <circle class="cls-1" cx="5.1" cy="15.1" r="1.3"/>
  <circle class="cls-1" cx="10.3" cy="23.9" r="1.3"/>
  <circle class="cls-1" cx="11.1" cy="17.6" r="1.3"/>
  <circle class="cls-1" cx="16" cy="18.6" r="1.3"/>
  <circle class="cls-1" cx="16.5" cy="25.5" r="1.3"/>
  <circle class="cls-1" cx="14.1" cy="10.1" r="1.3"/>
  <circle class="cls-1" cx="6.7" cy="10.6" r="1.3"/>
  <circle class="cls-1" cx="7.6" cy="17.9" r="1.3"/>
  <circle class="cls-1" cx="12.1" cy="12.9" r="1.3"/>
  <circle class="cls-1" cx="21.4" cy="13.5" r="1.3"/>
  <circle class="cls-1" cx="22.8" cy="5.5" r="1.3"/>
  <circle class="cls-1" cx="12.9" cy="4.9" r="1.3"/>
  <circle class="cls-1" cx="6.6" cy="9.9" r="1.3"/>
  <circle class="cls-1" cx="16" cy="4.9" r="1.3"/>
  <circle class="cls-1" cx="17.9" cy="8.5" r="1.3"/>
  <circle class="cls-1" cx="15.5" cy="15.1" r="1.3"/>
  <circle class="cls-1" cx="15.4" cy="23.6" r="1.3"/>
  <circle class="cls-1" cx="20.7" cy="19.9" r="1.3"/>
  <circle class="cls-1" cx="23.3" cy="24.1" r="1.3"/>
  <circle class="cls-1" cx="18.6" cy="29.2" r="1.3"/>
  <circle class="cls-1" cx="28.2" cy="16.9" r="1.3"/>
  <circle class="cls-1" cx="22.7" cy="11.9" r="1.3"/>
  <circle class="cls-1" cx="18.1" cy="17.5" r="1.3"/>
  <circle class="cls-1" cx="24.8" cy="17.4" r="1.3"/>
  <circle class="cls-1" cx="28.6" cy="25.6" r="1.3"/>
  <circle class="cls-1" cx="26" cy="27" r="1.3"/>
  <circle class="cls-1" cx="30.2" cy="12.5" r="1.3"/>
  <circle class="cls-1" cx="23.2" cy="11.3" r="1.3"/>
  <circle class="cls-1" cx="25.7" cy="9.2" r="1.3"/>
  <circle class="cls-1" cx="32" cy="18.6" r="1.3"/>
  <circle class="cls-1" cx="8.3" cy="14.5" r="1.3"/>
  <circle class="cls-1" cx="14.5" cy="12.8" r="1.3"/>
  <circle class="cls-1" cx="15.5" cy="17.7" r="1.3"/>
  <circle class="cls-1" cx="9.4" cy="20.9" r="1.3"/>
  <circle class="cls-1" cx="22.6" cy="12.5" r="1.3"/>
  <circle class="cls-1" cx="19.2" cy="11.8" r="1.3"/>
  <circle class="cls-1" cx="22.4" cy="20.6" r="1.3"/>
  <circle class="cls-1" cx="30.4" cy="18.7" r="1.3"/>
  <circle class="cls-1" cx="25.6" cy="15.4" r="1.3"/>
  <circle class="cls-1" cx="21.1" cy="7.4" r="1"/>
  <circle class="cls-1" cx="22.7" cy="11.9" r="1"/>
  <circle class="cls-1" cx="19.2" cy="12.9" r="1"/>
  <circle class="cls-1" cx="23.4" cy="17.9" r="1"/>
  <circle class="cls-1" cx="28.1" cy="14.9" r="1"/>
  <circle class="cls-1" cx="25" cy="10.5" r="1"/>
  <circle class="cls-1" cx="23.7" cy="15.3" r="1"/>
  <circle class="cls-1" cx="17.4" cy="18.1" r="1"/>
  <circle class="cls-1" cx="19.2" cy="23.9" r="1"/>
  <circle class="cls-1" cx="26" cy="20.9" r="1"/>
  <circle class="cls-1" cx="28.4" cy="15.4" r="1"/>
  <circle class="cls-1" cx="29.4" cy="17.6" r="1"/>
  <circle class="cls-1" cx="21.4" cy="20.3" r="1"/>
  <circle class="cls-1" cx="20.7" cy="15" r="1"/>
  <circle class="cls-1" cx="17.8" cy="9.4" r="1"/>
  <circle class="cls-1" cx="15.6" cy="13.7" r="1"/>
  <circle class="cls-1" cx="11.7" cy="18.2" r="1"/>
  <circle class="cls-1" cx="17" cy="19.7" r="1"/>
  <circle class="cls-1" cx="18.2" cy="14.3" r="1"/>
  <circle class="cls-1" cx="13.8" cy="16.8" r="1"/>
  <circle class="cls-1" cx="4.4" cy="19.3" r="1"/>
  <circle class="cls-1" cx="11.3" cy="22.2" r="1"/>
  <circle class="cls-1" cx="16.9" cy="20.2" r="1"/>
  <circle class="cls-1" cx="16" cy="22.5" r="1"/>
  <circle class="cls-1" cx="8.6" cy="18.4" r="1"/>
  <g class="cls-4">
    <g class="cls-4">
      <text class="cls-3" transform="translate(8.4 24.1)"><tspan x="0" y="0">Tc</tspan></text>
    </g>
  </g>
</svg>